<?xml version="1.0" encoding="UTF-8" standalone="no"?>
<!-- Created with Inkscape (http://www.inkscape.org/) -->

<svg
   width="4.2333331mm"
   height="4.2333336mm"
   viewBox="0 0 4.2333331 4.2333336"
   version="1.1"
   id="svg1"
   xml:space="preserve"
   inkscape:version="1.3 (0e150ed6c4, 2023-07-21)"
   sodipodi:docname="frontend_ui.svg"
   xmlns:inkscape="http://www.inkscape.org/namespaces/inkscape"
   xmlns:sodipodi="http://sodipodi.sourceforge.net/DTD/sodipodi-0.dtd"
   xmlns="http://www.w3.org/2000/svg"
   xmlns:svg="http://www.w3.org/2000/svg"><sodipodi:namedview
     id="namedview1"
     pagecolor="#ffffff"
     bordercolor="#000000"
     borderopacity="0.25"
     inkscape:showpageshadow="2"
     inkscape:pageopacity="0.0"
     inkscape:pagecheckerboard="0"
     inkscape:deskcolor="#d1d1d1"
     inkscape:document-units="mm"
     inkscape:zoom="1.0343421"
     inkscape:cx="361.58251"
     inkscape:cy="248.95052"
     inkscape:window-width="1920"
     inkscape:window-height="1017"
     inkscape:window-x="-8"
     inkscape:window-y="-8"
     inkscape:window-maximized="1"
     inkscape:current-layer="layer1" /><defs
     id="defs1" /><g
     inkscape:label="Layer 1"
     inkscape:groupmode="layer"
     id="layer1"
     transform="translate(-46.679818,-267.4341)"><g
       id="g22"
       transform="matrix(0.33354002,0,0,0.33653598,69.805121,178.76523)"
       inkscape:export-filename="search_icon.jpg"
       inkscape:export-xdpi="96"
       inkscape:export-ydpi="96"><path
         style="opacity:1;fill:#fca62d;fill-opacity:1;stroke:none;stroke-width:0.0564514;stroke-dasharray:none"
         d="m -57.634454,276.00628 c -0.219843,-0.0807 -0.375759,-0.1879 -0.849651,-0.58398 -0.335863,-0.28071 -1.928493,-1.76419 -2.669486,-2.48654 l -0.28951,-0.28222 -0.603963,0.28783 c -0.87481,0.41692 -1.009896,0.44032 -2.410316,0.41756 -1.298493,-0.0211 -1.314128,-0.0241 -2.053315,-0.39815 -1.500248,-0.7591 -2.516015,-2.13252 -2.77755,-3.75553 -0.09078,-0.56334 -0.03829,-1.50246 0.112934,-2.02069 0.532437,-1.82463 2.055528,-3.2376 3.901634,-3.61956 1.551912,-0.32108 3.323097,0.23472 4.486661,1.40791 0.41391,0.41734 0.860634,1.07119 1.061275,1.55333 0.284596,0.68388 0.387126,1.12668 0.412756,1.78253 0.03585,0.91753 -0.09535,1.48294 -0.580972,2.5036 l -0.260106,0.54669 1.25888,1.29732 c 1.837312,1.89343 2.254395,2.3645 2.254395,2.54623 0,0.19148 -0.500661,0.82854 -0.651135,0.82854 -0.02267,0 -0.06919,0.009 -0.103375,0.0201 -0.03418,0.0111 -0.141803,-0.009 -0.239156,-0.045 z m -5.930983,-4.01345 c 0.999869,-0.25374 1.739333,-0.7489 2.253187,-1.50879 0.560282,-0.82856 0.752049,-1.96384 0.494244,-2.92601 -0.114781,-0.42838 -0.420282,-1.0093 -0.716033,-1.36158 -0.686765,-0.81801 -1.550159,-1.2571 -2.575485,-1.30977 -1.085851,-0.0558 -2.075386,0.3338 -2.828293,1.11354 -0.712472,0.73785 -1.034762,1.61476 -0.983447,2.67581 0.07779,1.60858 1.135751,2.89948 2.719898,3.31876 0.566157,0.14985 1.039937,0.14928 1.635929,-0.002 z"
         id="path22" /><path
         style="fill:#fc722d;fill-opacity:1;stroke:none;stroke-width:0.0520205;stroke-dasharray:none"
         d="m -58.052659,275.51422 c -0.202666,-0.0744 -0.3464,-0.17309 -0.783264,-0.53794 -0.309622,-0.25858 -1.777812,-1.62511 -2.46091,-2.29051 l -0.266888,-0.25997 -0.556773,0.26514 c -0.806458,0.38405 -0.930989,0.40561 -2.221988,0.38464 -1.197036,-0.0194 -1.211449,-0.0223 -1.892881,-0.36676 -1.383027,-0.69925 -2.319429,-1.9644 -2.560528,-3.45946 -0.08368,-0.51892 -0.0353,-1.38401 0.104109,-1.86138 0.490835,-1.68079 1.894922,-2.98237 3.596784,-3.33421 1.430655,-0.29577 3.063449,0.21621 4.136099,1.29692 0.381569,0.38443 0.793389,0.98673 0.978353,1.43086 0.26236,0.62998 0.356879,1.03786 0.380506,1.64201 0.03306,0.84519 -0.0879,1.36603 -0.535578,2.30623 l -0.239783,0.50358 1.160519,1.19505 c 1.693754,1.74416 2.07825,2.17809 2.07825,2.34549 0,0.17638 -0.461543,0.76322 -0.600259,0.76322 -0.0209,0 -0.06379,0.008 -0.0953,0.0185 -0.03151,0.0102 -0.130723,-0.008 -0.220469,-0.0414 z m -5.467571,-3.69705 c 0.921745,-0.23373 1.603432,-0.68985 2.077136,-1.38984 0.516505,-0.76323 0.693288,-1.80901 0.455626,-2.69533 -0.105812,-0.39461 -0.387443,-0.92973 -0.660086,-1.25423 -0.633105,-0.75353 -1.429039,-1.158 -2.374251,-1.20652 -1.00101,-0.0514 -1.913227,0.30749 -2.607307,1.02575 -0.656803,0.67968 -0.953912,1.48746 -0.906606,2.46486 0.07172,1.48177 1.04701,2.67089 2.50738,3.05712 0.521922,0.13804 0.958683,0.13751 1.508108,-0.002 z"
         id="path22-2-2" /><path
         style="fill:#e34930;fill-opacity:1;stroke:none;stroke-width:0.0453749;stroke-dasharray:none"
         d="m -58.927889,274.5282 c -0.1769,-0.0648 -0.30236,-0.15087 -0.683683,-0.46888 -0.270258,-0.22539 -1.551791,-1.41649 -2.148042,-1.99647 l -0.232959,-0.2266 -0.485987,0.23111 c -0.703929,0.33475 -0.812629,0.35353 -1.939497,0.33526 -1.044851,-0.017 -1.057431,-0.0194 -1.65223,-0.31967 -1.207196,-0.6095 -2.024549,-1.71222 -2.234996,-3.01535 -0.07304,-0.45232 -0.03081,-1.20634 0.09087,-1.62243 0.428432,-1.46501 1.654011,-2.59951 3.139507,-2.90618 1.248769,-0.2578 2.673979,0.18846 3.610258,1.13042 0.333059,0.33509 0.692521,0.86006 0.85397,1.24718 0.229004,0.5491 0.311507,0.90462 0.332131,1.43121 0.02885,0.73669 -0.07673,1.19067 -0.467488,2.01017 l -0.209299,0.43894 1.012977,1.04163 c 1.47842,1.52025 1.814032,1.89848 1.814032,2.04438 0,0.15374 -0.402863,0.66524 -0.523945,0.66524 -0.01824,0 -0.05568,0.007 -0.08318,0.0161 -0.0275,0.009 -0.114103,-0.007 -0.19244,-0.036 z m -4.772452,-3.22244 c 0.804559,-0.20372 1.39958,-0.6013 1.813059,-1.21142 0.450839,-0.66525 0.605147,-1.57678 0.397701,-2.34931 -0.09236,-0.34396 -0.338186,-0.81038 -0.576166,-1.09322 -0.552616,-0.65679 -1.247359,-1.00934 -2.072401,-1.05163 -0.873747,-0.0448 -1.669991,0.26801 -2.275829,0.89406 -0.5733,0.59243 -0.832636,1.29651 -0.791345,2.14844 0.0626,1.29154 0.913899,2.32801 2.188606,2.66466 0.455567,0.12031 0.836801,0.11985 1.316375,-0.002 z"
         id="path22-2" /></g></g></svg>
